<svg id="Layer_1" data-name="Layer 1" xmlns="http://www.w3.org/2000/svg" viewBox="0 0 1308.35 566.64"><defs><style>.cls-1{fill:#fb8002;}.cls-2{fill:#231f20;}</style></defs><path class="cls-1" d="M819.88,667.5c-43.2,0-86.39-.12-129.59,0a390.54,390.54,0,0,1-114.81-16.76c-43.74-13.22-84.07-33.36-119.18-63-12.92-10.91-22.79-24.69-33.2-37.86-42.2-53.43-82.31-108.43-122.55-163.33q-29.82-40.65-59.12-81.66c-2.84-4-3.88-3.9-6.64,0Q169.53,397.61,104,490.11,56.14,557.82,8.31,625.58c-8.93,12.63-17.91,25.22-26.68,38a8.22,8.22,0,0,1-7.59,4q-96-.12-192-.08c-1.85,0-4.41.86-5.44-.79-1.45-2.32,1.33-3.73,2.47-5.35q37-52.32,74-104.56Q-79.1,460.95-11.3,365.07C20.21,320.61,52,276.35,83.44,231.83c18.73-26.52,36.46-53.78,56.81-79.09,14-17.44,30.64-32.41,51.25-41.86,18.3-8.39,37.65-11,57.86-9.32,42,3.57,70.7,28.46,93.68,60.14,53.58,73.84,105.73,148.71,158.46,223.16,20.9,29.52,41.65,59.15,62.75,88.52,11.18,15.56,27.45,24.77,44.28,32.76,26.74,12.68,55.29,18,84.67,18q187.66.29,375.32,0c3.7,0,7.39,0,11.09,0,1.31,0,3-.5,3.79.84,1.1,1.78-.68,2.8-1.56,3.94q-16.59,21.64-33.26,43.24c-23.13,30-46.34,59.93-69.3,90-3,4-6.16,5.36-11.14,5.34C918.72,667.42,869.3,667.5,819.88,667.5Z" transform="translate(223.85 -101.06)"/><path class="cls-2" d="M533.37,369.8c-10.78-15.2-20.47-29.46-30.78-43.26-12.32-16.49-23.92-33.49-35.89-50.21-13.56-18.92-26.91-38-40.24-57.18-2.54-3.65-1.74-5.36.8-8.1a273.83,273.83,0,0,1,43.07-37.82c32.11-22.73,67.69-37.92,105.36-48.45a404.34,404.34,0,0,1,107.67-15c133-.43,266.1-.2,399.16-.21.56,0,1.13.07,1.69.11.91,1.7-.56,2.55-1.3,3.52-18.73,24.54-37.74,48.86-56.16,73.63-8.41,11.32-17,22.49-25.46,33.81-7.43,10-15.19,19.89-22.9,29.75a10.3,10.3,0,0,1-9.18,4.48c-88.12-.13-176.24,0-264.36-.15-24.22,0-48.14,1.6-71.37,9-39,12.38-70.11,34.5-89.12,71.68C539,345.77,535.85,356.94,533.37,369.8Z" transform="translate(223.85 -101.06)"/><path class="cls-2" d="M238.09,416.07,415.34,667H61Z" transform="translate(223.85 -101.06)"/><path class="cls-1" d="M757.57,383.79c-8,0-15.93-.15-23.89.07-3.59.09-5.16-.71-5.11-4.76.22-15.33.18-30.68,0-46,0-3.53,1-4.71,4.58-4.67q24.76.22,49.52,0c3.62,0,4.63,1.24,4.59,4.72q-.24,23,0,46c0,3.54-1.06,4.79-4.62,4.71C774.27,383.67,765.92,383.8,757.57,383.79Z" transform="translate(223.85 -101.06)"/><path class="cls-1" d="M831.17,383.79c-8.17,0-16.33-.1-24.5,0-3.18.06-4.5-.91-4.48-4.3.1-15.74,0-31.48-.05-47.23,0-2.66.94-3.85,3.73-3.84q25.67.11,51.33,0c2.95,0,3.63,1.52,3.63,4,0,15.94,0,31.88,0,47.82,0,3.49-2.11,3.54-4.62,3.53C847.89,383.76,839.53,383.78,831.17,383.79Z" transform="translate(223.85 -101.06)"/><path class="cls-1" d="M757.86,453c-8.15,0-16.31-.11-24.46.05-3.27.07-4.88-.54-4.83-4.4.2-15.53.15-31.06,0-46.6,0-3.23,1-4.38,4.32-4.35q25.05.19,50.1,0c3.45,0,4.23,1.34,4.2,4.48q-.15,23.29,0,46.6c0,3.25-1,4.4-4.34,4.32C774.56,452.92,766.21,453,757.86,453Z" transform="translate(223.85 -101.06)"/><path class="cls-1" d="M831.3,453c-8,0-15.94-.2-23.89.08-4.19.14-5.3-1.44-5.25-5.4q.26-22.43,0-44.87c0-3.68.84-5.19,4.82-5.15q24.48.27,48.95,0c3.85,0,5,1.24,5,5q-.21,22.42.08,44.87c.06,4.34-1.54,5.7-5.81,5.54C847.23,452.83,839.26,453,831.3,453Z" transform="translate(223.85 -101.06)"/></svg>