<svg id="Layer_1" data-name="Layer 1" xmlns="http://www.w3.org/2000/svg" viewBox="0 0 1311.13 835.23"><defs><style>.cls-1{fill:#fb8002;}.cls-2{fill:#231f20;}</style></defs><path class="cls-1" d="M819.88,667.5c-43.2,0-86.39-.12-129.59,0a390.54,390.54,0,0,1-114.81-16.76c-43.74-13.22-84.07-33.36-119.18-63-12.92-10.91-22.79-24.69-33.2-37.86-42.2-53.43-82.31-108.43-122.55-163.33q-29.82-40.65-59.12-81.66c-2.84-4-3.88-3.9-6.64,0Q169.53,397.61,104,490.11,56.14,557.82,8.31,625.58c-8.93,12.63-17.91,25.22-26.68,38a8.22,8.22,0,0,1-7.59,4q-96-.12-192-.08c-1.85,0-4.41.86-5.44-.79-1.45-2.32,1.33-3.73,2.47-5.35q37-52.32,74-104.56Q-79.1,460.95-11.3,365.07C20.21,320.61,52,276.35,83.44,231.83c18.73-26.52,36.46-53.78,56.81-79.09,14-17.44,30.64-32.41,51.25-41.86,18.3-8.39,37.65-11,57.86-9.32,42,3.57,70.7,28.46,93.68,60.14,53.58,73.84,105.73,148.71,158.46,223.16,20.9,29.52,41.65,59.15,62.75,88.52,11.18,15.56,27.45,24.77,44.28,32.76,26.74,12.68,55.29,18,84.67,18q187.66.29,375.32,0c3.7,0,7.39,0,11.09,0,1.31,0,3-.5,3.79.84,1.1,1.78-.68,2.8-1.56,3.94q-16.59,21.64-33.26,43.24c-23.13,30-46.34,59.93-69.3,90-3,4-6.16,5.36-11.14,5.34C918.72,667.42,869.3,667.5,819.88,667.5Z" transform="translate(226.64 -101.06)"/><path class="cls-2" d="M533.37,369.8c-10.78-15.2-20.47-29.46-30.78-43.26-12.32-16.49-23.92-33.49-35.89-50.21-13.56-18.92-26.91-38-40.24-57.18-2.54-3.65-1.74-5.36.8-8.1a273.83,273.83,0,0,1,43.07-37.82c32.11-22.73,67.69-37.92,105.36-48.45a404.34,404.34,0,0,1,107.67-15c133-.43,266.1-.2,399.16-.21.56,0,1.13.07,1.69.11.91,1.7-.56,2.55-1.3,3.52-18.73,24.54-37.74,48.86-56.16,73.63-8.41,11.32-17,22.49-25.46,33.81-7.43,10-15.19,19.89-22.9,29.75a10.3,10.3,0,0,1-9.18,4.48c-88.12-.13-176.24,0-264.36-.15-24.22,0-48.14,1.6-71.37,9-39,12.38-70.11,34.5-89.12,71.68C539,345.77,535.85,356.94,533.37,369.8Z" transform="translate(226.64 -101.06)"/><path class="cls-2" d="M238.09,416.07,415.34,667H61Z" transform="translate(226.64 -101.06)"/><path class="cls-2" d="M88.87,875.41c-11.34,6.35-22.64,10-35.24,9.39-17.92-.82-32.57-8-43.83-21.71C-4.34,845.85-7.54,825.57,0,805.44c8.58-23,26.67-36.9,51.67-38.54,19.75-1.29,39.64-.26,59.46-.54,4.81-.06,3.5,3,3.51,5.39q.06,48.4,0,96.8c0,20.61-.2,41.21.14,61.81.08,5.06-1.43,6.24-6.12,5.86a116.44,116.44,0,0,0-15.74,0c-3.43.19-4.14-1.09-4.11-4.27.14-16.71.06-33.43.06-50.15Zm0-62.56c0-6.64-.19-12.09.07-17.52.16-3.31-.91-4.28-4.21-4.2-9.33.22-18.67-.09-28,.12-22.72.49-38.48,21.25-33.09,43.37C27.41,850,41.72,860.45,58.36,860c15.27-.41,26.47-10.73,29.69-26.84C89.48,826,88.37,818.81,88.88,812.85Z" transform="translate(226.64 -101.06)"/><path class="cls-2" d="M475.67,831.47H436c-5.75,0-6.17.61-3.36,5.76,5.62,10.33,14.41,16.45,26.1,16.89,17.29.64,34.62.58,51.93.4,4.7,0,6,1.33,5.68,5.85a153.54,153.54,0,0,0,0,16.34c.08,2.61-.83,3.34-3.34,3.25-19.8-.7-39.68,1.53-59.42-1.27-24-3.4-39.73-17.22-48.09-39.6-12.52-33.52,11.49-69.43,41.73-77.09,40-10.12,72.88,20.81,73.51,56.34.23,13.14.33,13.14-12.9,13.14Zm15.84-25.37c-4.75-13.05-16.16-20.92-29.54-20.71-13,.2-25.8,9.13-29.52,20.71Z" transform="translate(226.64 -101.06)"/><path class="cls-2" d="M-108.34,823.18c0,17.31-.09,34.62.08,51.92,0,3.6-.64,5-4.67,4.93-17.69-.24-35.39,0-53.08-.13-12.88-.08-25.43-3.4-35.62-10.62a58.22,58.22,0,0,1-23.05-33.89c-4.6-18.56-1-35.89,9.89-51.07,9.18-12.76,22.64-19.54,38.24-22.47,14-2.64,26.66.4,38.86,6.91,1.77.94,3.3,2.26,3.74-1.3.21-1.73,2.29-1,3.51-1,6-.08,12.07.16,18.09-.12,3.46-.16,4.1,1.16,4.08,4.31C-108.41,788.18-108.34,805.68-108.34,823.18Zm-25.91,11.66c0-5.05.3-10.12-.06-15.15-1-14.1-6.4-25.67-20.44-31.05-13.45-5.15-25.84-2.14-35.86,7.75s-12.54,22.13-7.78,35.37,14.19,21.33,28.34,22.42c10.63.82,21.36.26,32,.52,3.22.08,3.92-1.24,3.82-4.12C-134.37,845.34-134.24,840.09-134.25,834.84Z" transform="translate(226.64 -101.06)"/><path class="cls-2" d="M1080.53,823.1c0,17.1-.11,34.21.09,51.31.05,4-.5,5.74-5.23,5.65-17.3-.34-34.62.38-51.9-.25C994,878.74,973.74,864.86,964,835c-3.24-9.9-2.7-20.88.37-31.28,7.81-26.48,37.12-46.33,64-42.77,7.91,1,15.84,3.07,22.8,7.55,1.35.87,3.21,3,3.66-1,.19-1.72,2.25-1,3.48-1,6-.07,12.06.14,18.07-.1,3.31-.13,4.24,1,4.21,4.23C1080.44,788.11,1080.52,805.6,1080.53,823.1ZM1054.59,834h-.08c0-5.63.34-11.29-.07-16.89-.79-10.8-5.34-19.78-14.57-25.79-11.4-7.42-26.82-6.41-38.07,2.13-10.71,8.12-15.71,22.69-12.08,35.23,4.31,14.92,15.36,24.84,29.51,25.6,10.65.58,21.35.22,32,.48,3.08.07,3.43-1.39,3.38-3.87C1054.51,845.23,1054.59,839.6,1054.59,834Z" transform="translate(226.64 -101.06)"/><path class="cls-2" d="M242.75,823.6c0,17.11-.14,34.23.09,51.34.06,4.17-1.22,5.15-5.24,5.08-13.8-.25-27.62.14-41.42-.16-16-.36-30.47-5.36-41.82-17a52.69,52.69,0,0,1-15.15-36.8c-.36-18.66-.16-37.33-.31-56,0-2.67.63-3.78,3.54-3.69,6.21.21,12.46.33,18.66,0,4.64-.27,4.71,3.57,4.48,5.61-2,17.39-1.14,34.84-.55,52.19.65,19.29,14.8,30,29.75,30.29,6,.13,12.05,0,18.07.28,3.33.17,3.75-1.33,3.72-4.12-.33-25.64.56-51.28-.5-76.9-.28-6.69.2-7.4,7.17-7.19,6.34.19,14.58-2.77,18.49,1.18,3.59,3.64.92,11.83,1,18C242.83,798.32,242.75,811,242.75,823.6Z" transform="translate(226.64 -101.06)"/><path class="cls-2" d="M857.47,822.71c0,17.5-.12,35,.09,52.49,0,3.86-1.07,4.89-4.86,4.82-12.05-.24-24.11-.3-36.16,0-36.53.74-62.6-21.78-62.72-60.51-.05-16.33.08-32.66-.13-49,0-3.54,1.3-4.2,4.39-4.09a164.43,164.43,0,0,0,16.91,0c4.14-.28,4.69,1.45,4.66,5-.16,15.95,0,31.89,0,47.83,0,8.32,1.35,16.32,6.55,23.08,5.45,7.08,12.59,11.5,21.72,12,6.21.32,12.45.06,18.64.5,4.09.29,5.18-1,5.15-5.09-.2-25.67.06-51.33-.24-77-.06-5.14,1.16-6.86,6.35-6.31a75,75,0,0,0,14,0c4.42-.35,6,.82,5.85,5.61C857.28,788.88,857.48,805.79,857.47,822.71Z" transform="translate(226.64 -101.06)"/><path class="cls-2" d="M643.53,809.56c-10.66-12.89-22.74-21-38.1-23.65-18.8-3.29-38.19,10.33-40.15,28.27-2.39,21.86,10.75,39.1,31.39,40.15,14,.7,28,.42,42,.24,4.07-.06,5.42,1.07,5.17,5.18-.35,5.62-.08,11.27-.1,16.91,0,1.5.34,3.37-2.1,3.26-21.24-1-42.91,3.22-63.64-4-34.53-12-52.33-53.23-29.32-88.88,18.1-28,49.4-32.54,76.72-21.87,1.42.56,2.82,1.15,4.23,1.73,11.65,4.81,13.92,8.19,13.92,20.72C643.54,794.44,643.53,801.24,643.53,809.56Z" transform="translate(226.64 -101.06)"/><path class="cls-2" d="M687.87,737.9c0,7.78.32,15.58-.11,23.34-.26,4.63,1.42,5.4,5.58,5.3,11.66-.27,23.34,0,35-.16,3.48,0,5.48.39,5,4.63-.7,6.3,2.64,14.8-1.32,18.36-3.5,3.14-11.83,1-18,1-7.2.07-14.4.17-21.59,0-3.36-.1-4.78.55-4.66,4.39.31,9.91,0,19.84.16,29.76.24,15.2,12.91,28.52,28.18,29.8,2.51.2,5,.32,7.57.33,9.61.07,9.61.05,9.61,9.37v3.5c0,12.5,0,12.73-12.8,12.37-22-.62-39.06-9.84-51.21-28.55-5-7.65-6.83-15.91-6.91-24.42-.34-37.54-.1-75.09-.27-112.63,0-4,1.22-4.93,4.92-4.74a156.24,156.24,0,0,0,16.34,0c3.49-.19,4.75.68,4.61,4.44C687.66,721.94,687.87,729.93,687.87,737.9Z" transform="translate(226.64 -101.06)"/><path class="cls-2" d="M316.79,772.42c0-19.24.13-38.49-.09-57.74-.05-4.13,1.09-5.42,5.19-5.15a127.17,127.17,0,0,0,15.74,0c3.73-.21,5,.83,4.9,4.76-.23,15.55.06,31.11-.19,46.66-.07,4.23.82,5.74,5.38,5.6,11.85-.34,23.72.06,35.57-.21,3.95-.09,5,1.21,4.72,4.9a86,86,0,0,0,0,14c.47,4.69-1.47,5.37-5.59,5.27-11.66-.28-23.33.08-35-.2-4.18-.1-5.34,1.26-5.11,5.28.65,11.23-.9,22.53.92,33.74,2,12.47,13.91,23.72,26.52,24.86a141.44,141.44,0,0,0,14.56.42c2.79-.05,3.84.86,3.63,3.66-.2,2.52,0,5.06,0,7.58,0,14.4,0,14.79-14.61,14-23-1.29-40.28-12-51.4-32.63-4.35-8.06-5.15-16.45-5.15-25.19Z" transform="translate(226.64 -101.06)"/><path class="cls-2" d="M-83.54,843.68c0-10.49.08-21,0-31.49,0-3.84,1.64-6.93,3.2-10.25,11.21-23.9,30.16-35.34,56.29-35.49,11.23-.06,11.33-.07,11.17,11.2-.07,4.4,2,10.22-1,12.79-2.52,2.15-8.16.57-12.41.78-17.38.86-33,14.33-32.23,33.06.68,16.9,0,33.84.22,50.76,0,3.61-.64,5.25-4.71,5a153.85,153.85,0,0,0-16.91,0c-3.34.15-4.28-.94-4.22-4.23.19-10.69.07-21.39.07-32.09Z" transform="translate(226.64 -101.06)"/><path class="cls-2" d="M881.7,845.33c.6-9.23-.85-20.51.88-31.75,3.51-22.92,21.25-40.32,43.63-45.63,7.62-1.81,15.41-1.42,23.16-1.56,2.77,0,3.74.74,3.64,3.58-.2,5.63-.32,11.29,0,16.91.24,3.78-1.13,4.5-4.59,4.4-10.28-.29-20.24.59-28.94,7.27a29.41,29.41,0,0,0-12.06,24c-.27,17.49-.23,35,0,52.49.06,4.22-1.21,5.35-5.2,5-6.71-.6-15.73,2.76-19.52-1.31-3.34-3.59-1-12.52-1-19.09C881.65,855.5,881.7,851.42,881.7,845.33Z" transform="translate(226.64 -101.06)"/><path class="cls-1" d="M757.57,383.79c-8,0-15.93-.15-23.89.07-3.59.09-5.16-.71-5.11-4.76.22-15.33.18-30.68,0-46,0-3.53,1-4.71,4.58-4.67q24.76.22,49.52,0c3.62,0,4.63,1.24,4.59,4.72q-.24,23,0,46c0,3.54-1.06,4.79-4.62,4.71C774.27,383.67,765.92,383.8,757.57,383.79Z" transform="translate(226.64 -101.06)"/><path class="cls-1" d="M831.17,383.79c-8.17,0-16.33-.1-24.5,0-3.18.06-4.5-.91-4.48-4.3.1-15.74,0-31.48-.05-47.23,0-2.66.94-3.85,3.73-3.84q25.67.11,51.33,0c2.95,0,3.63,1.52,3.63,4,0,15.94,0,31.88,0,47.82,0,3.49-2.11,3.54-4.62,3.53C847.89,383.76,839.53,383.78,831.17,383.79Z" transform="translate(226.64 -101.06)"/><path class="cls-1" d="M757.86,453c-8.15,0-16.31-.11-24.46.05-3.27.07-4.88-.54-4.83-4.4.2-15.53.15-31.06,0-46.6,0-3.23,1-4.38,4.32-4.35q25.05.19,50.1,0c3.45,0,4.23,1.34,4.2,4.48q-.15,23.29,0,46.6c0,3.25-1,4.4-4.34,4.32C774.56,452.92,766.21,453,757.86,453Z" transform="translate(226.64 -101.06)"/><path class="cls-1" d="M831.3,453c-8,0-15.94-.2-23.89.08-4.19.14-5.3-1.44-5.25-5.4q.26-22.43,0-44.87c0-3.68.84-5.19,4.82-5.15q24.48.27,48.95,0c3.85,0,5,1.24,5,5q-.21,22.42.08,44.87c.06,4.34-1.54,5.7-5.81,5.54C847.23,452.83,839.26,453,831.3,453Z" transform="translate(226.64 -101.06)"/><path class="cls-2" d="M292.48,823.43c0,16.91-.23,33.82.12,50.72.11,5.06-1.47,6.24-6.17,5.88a140.86,140.86,0,0,0-16.31,0c-2.85.1-3.56-1-3.56-3.67q.12-53,0-106.1c0-3.21,1.17-3.9,4-3.82,5.82.16,11.67.28,17.48,0,3.71-.2,4.52,1.1,4.49,4.6C292.39,788.45,292.48,805.94,292.48,823.43Z" transform="translate(226.64 -101.06)"/><path class="cls-2" d="M266.56,724.18c.46-4.31-2-10.45.92-13.54s9.17-.89,13.93-1c11.07-.17,11.07,0,11.06,11.17,0,4.84-.11,9.68,0,14.52.08,2.43-.59,3.42-3.21,3.36-7-.17-13.93-.06-20.9-.1-1.53,0-2.44.08-2-2.38C267.05,732.48,266.56,728.53,266.56,724.18Z" transform="translate(226.64 -101.06)"/></svg>